<svg xmlns="http://www.w3.org/2000/svg" width="1206" height="2622" viewBox="0 0 1206 2622"><defs><linearGradient id="bg" x2="1" y2="1"><stop stop-color="#152d53"/><stop offset=".48" stop-color="#366399"/><stop offset="1" stop-color="#eba96b"/></linearGradient></defs><rect width="1206" height="2622" fill="url(#bg)"/><circle cx="1160" cy="830" r="810" fill="#fff" opacity=".07"/><circle cx="60" cy="1910" r="690" fill="#f9c887" opacity=".12"/><g fill="#fff" font-family="sans-serif"><text x="85" y="150" font-size="55">9:41</text><text x="1080" y="150" font-size="38" text-anchor="end">100%</text><rect x="80" y="300" width="1046" height="390" rx="65" opacity=".13"/><text x="135" y="407" font-size="36" letter-spacing="5">FOLDLIGHT</text><text x="135" y="520" font-size="86">Light in motion.</text><text x="135" y="610" font-size="34">An original demo screen</text><rect x="88" y="845" width="182" height="182" rx="46" fill="#e4ba60"/><circle cx="179" cy="936" r="39" fill="none" stroke="#fff" stroke-width="7" opacity=".85"/><text x="179" y="1092" font-size="32" text-anchor="middle">Notes</text><rect x="371" y="845" width="182" height="182" rx="46" fill="#cf83a5"/><circle cx="462" cy="936" r="39" fill="none" stroke="#fff" stroke-width="7" opacity=".85"/><text x="462" y="1092" font-size="32" text-anchor="middle">Photos</text><rect x="654" y="845" width="182" height="182" rx="46" fill="#d7a390"/><circle cx="745" cy="936" r="39" fill="none" stroke="#fff" stroke-width="7" opacity=".85"/><text x="745" y="1092" font-size="32" text-anchor="middle">Calendar</text><rect x="937" y="845" width="182" height="182" rx="46" fill="#75b5bc"/><circle cx="1028" cy="936" r="39" fill="none" stroke="#fff" stroke-width="7" opacity=".85"/><text x="1028" y="1092" font-size="32" text-anchor="middle">Clock</text><rect x="88" y="1175" width="182" height="182" rx="46" fill="#669ccd"/><circle cx="179" cy="1266" r="39" fill="none" stroke="#fff" stroke-width="7" opacity=".85"/><text x="179" y="1422" font-size="32" text-anchor="middle">Mail</text><rect x="371" y="1175" width="182" height="182" rx="46" fill="#a5b0c6"/><circle cx="462" cy="1266" r="39" fill="none" stroke="#fff" stroke-width="7" opacity=".85"/><text x="462" y="1422" font-size="32" text-anchor="middle">Camera</text><rect x="654" y="1175" width="182" height="182" rx="46" fill="#e4ad67"/><circle cx="745" cy="1266" r="39" fill="none" stroke="#fff" stroke-width="7" opacity=".85"/><text x="745" y="1422" font-size="32" text-anchor="middle">Weather</text><rect x="937" y="1175" width="182" height="182" rx="46" fill="#bb86b4"/><circle cx="1028" cy="1266" r="39" fill="none" stroke="#fff" stroke-width="7" opacity=".85"/><text x="1028" y="1422" font-size="32" text-anchor="middle">Music</text><rect x="88" y="1505" width="182" height="182" rx="46" fill="#68b6c5"/><circle cx="179" cy="1596" r="39" fill="none" stroke="#fff" stroke-width="7" opacity=".85"/><text x="179" y="1752" font-size="32" text-anchor="middle">Files</text><rect x="371" y="1505" width="182" height="182" rx="46" fill="#99b59c"/><circle cx="462" cy="1596" r="39" fill="none" stroke="#fff" stroke-width="7" opacity=".85"/><text x="462" y="1752" font-size="32" text-anchor="middle">Map</text><rect x="654" y="1505" width="182" height="182" rx="46" fill="#7b87bc"/><circle cx="745" cy="1596" r="39" fill="none" stroke="#fff" stroke-width="7" opacity=".85"/><text x="745" y="1752" font-size="32" text-anchor="middle">Studio</text><rect x="937" y="1505" width="182" height="182" rx="46" fill="#92a0af"/><circle cx="1028" cy="1596" r="39" fill="none" stroke="#fff" stroke-width="7" opacity=".85"/><text x="1028" y="1752" font-size="32" text-anchor="middle">Settings</text><rect x="80" y="2250" width="1046" height="260" rx="75" opacity=".15"/><rect x="135" y="2290" width="178" height="178" rx="46" fill="#75b5bc"/><circle cx="224" cy="2379" r="35" fill="none" stroke="#fff" stroke-width="7"/><rect x="398" y="2290" width="178" height="178" rx="46" fill="#669ccd"/><circle cx="487" cy="2379" r="35" fill="none" stroke="#fff" stroke-width="7"/><rect x="661" y="2290" width="178" height="178" rx="46" fill="#bb86b4"/><circle cx="750" cy="2379" r="35" fill="none" stroke="#fff" stroke-width="7"/><rect x="924" y="2290" width="178" height="178" rx="46" fill="#e4ba60"/><circle cx="1013" cy="2379" r="35" fill="none" stroke="#fff" stroke-width="7"/></g></svg>
